# xmcd
#
# Track frame offsets: 
#        150
#        19687
#        44166
#        58234
#        80543
#        98838
#        112346
#        130974
#        141622
#        161473
#        175575
#        191121
#        203762
#        219544
#
# Disc length: 3825 seconds
#
# Revision: 0
# Processed by: cddbd v1.4PL0 Copyright (c) Steve Scherf et al.
# Submitted via: ExactAudioCopy v0.90b4
#
DISCID=d70eef0e
DTITLE=Cast Iron Filter - Further Down the Line
DYEAR=2000
DGENRE=Bluegrass
TTITLE0=Kamikaze Man
TTITLE1=Harlan County, USA
TTITLE2=Nowhere to Be
TTITLE3=Who Are We to Question Love
TTITLE4=Sheila and Jake
TTITLE5=Unleaded
TTITLE6=On the Belvedere
TTITLE7=Hard Luck Man
TTITLE8=Ain't So Great
TTITLE9=Black Mountain
TTITLE10=Rebecca Romjin
TTITLE11=The Runaway Song
TTITLE12=Walk Home Alone
TTITLE13=Further Down the Line
EXTD=
EXTT0=
EXTT1=
EXTT2=
EXTT3=
EXTT4=
EXTT5=
EXTT6=
EXTT7=
EXTT8=
EXTT9=
EXTT10=
EXTT11=
EXTT12=
EXTT13=
PLAYORDER=
